# xmcd
#
# Track frame offsets: 
#        150
#        14734
#        29669
#        43953
#        59869
#        76197
#        92012
#        106270
#        121755
#        137836
#        153637
#        171331
#        185424
#        202789
#        217820
#        232605
#        247147
#
# Disc length: 3517 seconds
#
# Revision: 2
# Processed by: cddbd v1.5.2PL0 Copyright (c) Steve Scherf et al.
# Submitted via: ExactAudioCopyFreeDBPlugin 1.0
#
DISCID=eb0dbb11
DTITLE=Charlie Puth - Nine Track Mind (Japan Special Edition)
DYEAR=2016
DGENRE=R&B
TTITLE0=One Call Away
TTITLE1=Dangerously
TTITLE2=Marvin Gaye (feat. Meghan Trainor)
TTITLE3=Losing My Mind
TTITLE4=We Don't Talk Anymore (feat. Selena Gomez)
TTITLE5=My Gospel
TTITLE6=Up All Night
TTITLE7=Left Right Left
TTITLE8=Then There's You
TTITLE9=Suffer
TTITLE10=As You Are (feat. Shy Carter)
TTITLE11=Some Type of Love
TTITLE12=Wiz Khalifa - See You Again (feat. Charile Puth) [From Furiou
TTITLE12=s 7]
TTITLE13=Marvin Gaye (Remix) [feat. Wale]
TTITLE14=Marvin Gaye (Boehm Remix) [feat. Meghan Trainor]
TTITLE15=One Call Away (Remix) [feat. Tyga]
TTITLE16=One Call Away (KLYMVX Remix)
EXTD=
EXTT0=
EXTT1=
EXTT2=
EXTT3=
EXTT4=
EXTT5=
EXTT6=
EXTT7=
EXTT8=
EXTT9=
EXTT10=
EXTT11=
EXTT12=
EXTT13=
EXTT14=
EXTT15=
EXTT16=
PLAYORDER=
